{
    "accessors": {
        "Scene_Root_mesh_buffer_accessor_0": {
            "bufferView": "Scene_Root_mesh_buffer_view_0",
            "byteOffset": 0,
            "byteStride": 32,
            "componentType": 5126,
            "count": 231,
            "max": [
                0.14932899177074432,
                0.1292334794998169,
                0.16684022545814514
            ],
            "min": [
                -0.1567688137292862,
                -0.15089018642902374,
                -0.03125416114926338
            ],
            "type": "VEC3"
        },
        "Scene_Root_mesh_buffer_accessor_1": {
            "bufferView": "Scene_Root_mesh_buffer_view_0",
            "byteOffset": 12,
            "byteStride": 32,
            "componentType": 5126,
            "count": 231,
            "max": [
                0.9926224946975708,
                0.9822667241096497,
                0.9696495532989502
            ],
            "min": [
                -0.9933915138244629,
                -0.988845944404602,
                -0.20106370747089386
            ],
            "type": "VEC3"
        },
        "Scene_Root_mesh_buffer_accessor_2": {
            "bufferView": "Scene_Root_mesh_buffer_view_0",
            "byteOffset": 24,
            "byteStride": 32,
            "componentType": 5126,
            "count": 231,
            "max": [
                0.8885530233383179,
                1.9906730651855469
            ],
            "min": [
                0,
                0
            ],
            "type": "VEC2"
        },
        "Scene_Root_mesh_buffer_accessor_3": {
            "bufferView": "Scene_Root_mesh_buffer_view_1",
            "byteOffset": 0,
            "byteStride": 2,
            "componentType": 5123,
            "count": 1092,
            "max": [
                230
            ],
            "min": [
                0
            ],
            "type": "SCALAR"
        }
    },
    "asset": {
        "profile": {
            "api": "WebGL",
            "version": "1.0.3"
        },
        "version": "1.0"
    },
    "bufferViews": {
        "Scene_Root_mesh_buffer_view_0": {
            "buffer": "Scene_Root_mesh_buffer",
            "byteLength": 7392,
            "byteOffset": 0,
            "target": 34962
        },
        "Scene_Root_mesh_buffer_view_1": {
            "buffer": "Scene_Root_mesh_buffer",
            "byteLength": 2184,
            "byteOffset": 7392,
            "target": 34963
        }
    },
    "buffers": {
        "Scene_Root_mesh_buffer": {
            "byteLength": 9576,
            "type": "arraybuffer",
            "uri": "data:text/plain;base64,"
        }
    },
    "extensionsUsed": [
        "KHR_materials_common"
    ],
    "extras": {
        "lights": {
            "Sun": {
                "directional": {
                    "color": [
                        1.0,
                        1.0,
                        1.0
                    ]
                },
                "type": "directional"
            }
        }
    },
    "materials": {
        "Material": {
            "extensions": {
                "KHR_materials_common": {
                    "technique": "PHONG",
                    "values": {
                        "ambient": [
                            1.0,
                            1.0,
                            1.0,
                            1.0
                        ],
                        "diffuse": [
                            0.64000004529953,
                            0.64000004529953,
                            0.64000004529953,
                            1.0
                        ],
                        "doubleSided": false,
                        "emission": [
                            0.0,
                            0.0,
                            0.0,
                            1.0
                        ],
                        "shininess": 50,
                        "specular": [
                            0.5,
                            0.5,
                            0.5,
                            1.0
                        ],
                        "transparency": 1.0,
                        "transparent": false
                    }
                }
            }
        },
        "Material.000001": {
            "extensions": {
                "KHR_materials_common": {
                    "technique": "PHONG",
                    "values": {
                        "ambient": [
                            1.0,
                            1.0,
                            1.0,
                            1.0
                        ],
                        "diffuse": [
                            0.12371212989091873,
                            0.03868899121880531,
                            0.0,
                            1.0
                        ],
                        "doubleSided": false,
                        "emission": [
                            0.0,
                            0.0,
                            0.0,
                            1.0
                        ],
                        "shininess": 6,
                        "specular": [
                            0.0,
                            0.0,
                            0.0,
                            1.0
                        ],
                        "transparency": 1.0,
                        "transparent": true
                    }
                }
            }
        }
    },
    "meshes": {
        "Scene_Root_mesh": {
            "name": "Scene_Root_mesh",
            "primitives": [
                {
                    "attributes": {
                        "NORMAL": "Scene_Root_mesh_buffer_accessor_1",
                        "POSITION": "Scene_Root_mesh_buffer_accessor_0",
                        "TEXCOORD_0": "Scene_Root_mesh_buffer_accessor_2"
                    },
                    "indices": "Scene_Root_mesh_buffer_accessor_3",
                    "material": "Material.000001",
                    "mode": 4
                }
            ]
        }
    },
    "nodes": {
        "Scene_Root_mesh": {
            "children": [],
            "matrix": [
                11.236125946044922,
                0.0,
                0.0,
                0.0,
                0.0,
                11.236125946044922,
                1.339450591331115e-06,
                0.0,
                0.0,
                -1.339450591331115e-06,
                11.236125946044922,
                0.0,
                0.0,
                0.0,
                0.1754932701587677,
                1.0
            ],
            "meshes": [
                "Scene_Root_mesh"
            ],
            "name": "Scene_Root_mesh"
        },
        "Scene_root": {
            "children": [
                "Sun",
                "Scene_Root_mesh"
            ],
            "matrix": [
                -1.0,
                0.0,
                0.0,
                0.0,
                0.0,
                0.0,
                1.0,
                0.0,
                0.0,
                1.0,
                0.0,
                0.0,
                0.0,
                0.0,
                0.0,
                1.0
            ],
            "name": "Scene_root"
        },
        "Sun": {
            "children": [],
            "extras": {
                "light": "Sun"
            },
            "matrix": [
                1.0,
                0.0,
                0.0,
                0.0,
                0.0,
                1.0,
                0.0,
                0.0,
                0.0,
                0.0,
                1.0,
                0.0,
                -1.5746312141418457,
                5.90996789932251,
                2.203400135040283,
                1.0
            ],
            "name": "Sun"
        }
    },
    "samplers": {
        "default": {}
    },
    "scene": "Scene",
    "scenes": {
        "Scene": {
            "extras": {
                "active_camera": "",
                "background_color": [
                    0.05087608844041824,
                    0.05087608844041824,
                    0.05087608844041824
                ],
                "frames_per_second": 24
            },
            "nodes": [
                "Scene_root"
            ]
        }
    }
}
