{
    "accessors": {
        "Cube.003_buffer_accessor_0": {
            "bufferView": "Cube.003_buffer_view_0",
            "byteOffset": 0,
            "byteStride": 24,
            "componentType": 5126,
            "count": 120,
            "max": [
                8.658164978027344,
                5.366879463195801,
                1.0
            ],
            "min": [
                -3.361738681793213,
                -1.0000005960464478,
                -1.0
            ],
            "type": "VEC3"
        },
        "Cube.003_buffer_accessor_1": {
            "bufferView": "Cube.003_buffer_view_0",
            "byteOffset": 12,
            "byteStride": 24,
            "componentType": 5126,
            "count": 120,
            "max": [
                1.0,
                1.0,
                1.0
            ],
            "min": [
                -1.0,
                -1.0,
                -1.0
            ],
            "type": "VEC3"
        },
        "Cube.003_buffer_accessor_2": {
            "bufferView": "Cube.003_buffer_view_1",
            "byteOffset": 0,
            "byteStride": 2,
            "componentType": 5123,
            "count": 180,
            "max": [
                119
            ],
            "min": [
                0
            ],
            "type": "SCALAR"
        }
    },
    "asset": {
        "profile": {
            "api": "WebGL",
            "version": "1.0.3"
        },
        "version": "1.0"
    },
    "bufferViews": {
        "Cube.003_buffer_view_0": {
            "buffer": "Cube.003_buffer",
            "byteLength": 2880,
            "byteOffset": 0,
            "target": 34962
        },
        "Cube.003_buffer_view_1": {
            "buffer": "Cube.003_buffer",
            "byteLength": 360,
            "byteOffset": 2880,
            "target": 34963
        }
    },
    "buffers": {
        "Cube.003_buffer": {
            "byteLength": 3240,
            "type": "arraybuffer",
            "uri": "data:text/plain;base64,"
        }
    },
    "cameras": {
        "Camera": {
            "perspective": {
                "aspectRatio": 1.703595982340029,
                "yfov": 0.5033799409866333,
                "zfar": 100.0,
                "znear": 0.10000000149011612
            },
            "type": "perspective"
        }
    },
    "extensionsUsed": [
        "KHR_materials_common"
    ],
    "extras": {
        "lights": {
            "Lamp": {
                "point": {
                    "color": [
                        1.0,
                        1.0,
                        1.0
                    ],
                    "constantAttenuation": 1,
                    "linearAttenuation": 0,
                    "quadraticAttenuation": 0.03333335240683057
                },
                "type": "point"
            }
        }
    },
    "materials": {
        "Material": {
            "extensions": {
                "KHR_materials_common": {
                    "technique": "LAMBERT",
                    "values": {
                        "ambient": [
                            1.0,
                            1.0,
                            1.0,
                            1.0
                        ],
                        "diffuse": [
                            1.0,
                            1.0,
                            1.0,
                            1.0
                        ],
                        "doubleSided": false,
                        "emission": [
                            0.0,
                            0.0,
                            0.0,
                            1.0
                        ],
                        "shininess": 50,
                        "specular": [
                            0.0,
                            0.0,
                            0.0,
                            1.0
                        ],
                        "transparency": 1.0,
                        "transparent": false
                    }
                }
            }
        }
    },
    "meshes": {
        "Cube.003": {
            "name": "Cube.003",
            "primitives": [
                {
                    "attributes": {
                        "NORMAL": "Cube.003_buffer_accessor_1",
                        "POSITION": "Cube.003_buffer_accessor_0"
                    },
                    "indices": "Cube.003_buffer_accessor_2",
                    "material": "Material",
                    "mode": 4
                }
            ]
        }
    },
    "nodes": {
        "Camera": {
            "camera": "Camera",
            "children": [],
            "matrix": [
                0.6859206557273865,
                0.7276763319969177,
                0.0,
                0.0,
                -0.32401347160339355,
                0.305420845746994,
                0.8953956365585327,
                0.0,
                0.6515582203865051,
                -0.6141703724861145,
                0.44527140259742737,
                0.0,
                7.481131553649902,
                -6.5076398849487305,
                6.365701675415039,
                1.0
            ],
            "name": "Camera"
        },
        "Cube.003": {
            "children": [],
            "matrix": [
                1.2562149542816314e-08,
                0.0,
                -0.16639071702957153,
                0.0,
                2.3726952846914173e-08,
                -0.07281749695539474,
                1.791335134764785e-15,
                0.0,
                -2.7484941482543945,
                -8.955731232163089e-07,
                -2.07505536309327e-07,
                0.0,
                0.22441180050373077,
                0.01356518268585205,
                1.4626743793487549,
                1.0
            ],
            "meshes": [
                "Cube.003"
            ],
            "name": "Cube.003"
        },
        "Lamp": {
            "children": [],
            "extras": {
                "light": "Lamp"
            },
            "matrix": [
                -0.29086464643478394,
                0.9551711678504944,
                -0.05518905818462372,
                0.0,
                -0.7711008191108704,
                -0.1998833566904068,
                0.6045247316360474,
                0.0,
                0.5663931965827942,
                0.21839119493961334,
                0.7946722507476807,
                0.0,
                4.076245307922363,
                1.0054539442062378,
                6.925898551940918,
                1.0
            ],
            "name": "Lamp"
        },
        "Scene_root": {
            "children": [
                "Cube.003",
                "Lamp",
                "Camera"
            ],
            "matrix": [
                -1.0,
                0.0,
                0.0,
                0.0,
                0.0,
                0.0,
                1.0,
                0.0,
                0.0,
                1.0,
                0.0,
                0.0,
                0.0,
                0.0,
                0.0,
                1.0
            ],
            "name": "Scene_root"
        }
    },
    "samplers": {
        "default": {}
    },
    "scene": "Scene",
    "scenes": {
        "Scene": {
            "extras": {
                "active_camera": "Camera",
                "background_color": [
                    0.05087608844041824,
                    0.05087608844041824,
                    0.05087608844041824
                ],
                "frames_per_second": 24
            },
            "nodes": [
                "Scene_root"
            ]
        }
    }
}
