{
    "accessors": {
        "Circle.008_buffer_accessor_0": {
            "bufferView": "Circle.008_buffer_view_0",
            "byteOffset": 0,
            "byteStride": 24,
            "componentType": 5126,
            "count": 32,
            "max": [
                1.0000001192092896,
                0.9999997019767761,
                0
            ],
            "min": [
                -0.9999998807907104,
                -1.000000238418579,
                0
            ],
            "type": "VEC3"
        },
        "Circle.008_buffer_accessor_1": {
            "bufferView": "Circle.008_buffer_view_0",
            "byteOffset": 12,
            "byteStride": 24,
            "componentType": 5126,
            "count": 32,
            "max": [
                0,
                0,
                0.9999999403953552
            ],
            "min": [
                0,
                0,
                0
            ],
            "type": "VEC3"
        },
        "Circle.008_buffer_accessor_2": {
            "bufferView": "Circle.008_buffer_view_1",
            "byteOffset": 0,
            "byteStride": 2,
            "componentType": 5123,
            "count": 90,
            "max": [
                31
            ],
            "min": [
                0
            ],
            "type": "SCALAR"
        },
        "Circle.010_buffer_accessor_0": {
            "bufferView": "Circle.010_buffer_view_0",
            "byteOffset": 0,
            "byteStride": 24,
            "componentType": 5126,
            "count": 260,
            "max": [
                5.228824138641357,
                1.4925899505615234,
                5.005234241485596
            ],
            "min": [
                -5.228822231292725,
                -1.4925885200500488,
                -5.017294406890869
            ],
            "type": "VEC3"
        },
        "Circle.010_buffer_accessor_1": {
            "bufferView": "Circle.010_buffer_view_0",
            "byteOffset": 12,
            "byteStride": 24,
            "componentType": 5126,
            "count": 260,
            "max": [
                0.24098815023899078,
                0.994686484336853,
                0.45807358622550964
            ],
            "min": [
                -0.18526999652385712,
                -0.833558201789856,
                -0.49932610988616943
            ],
            "type": "VEC3"
        },
        "Circle.010_buffer_accessor_2": {
            "bufferView": "Circle.010_buffer_view_1",
            "byteOffset": 0,
            "byteStride": 2,
            "componentType": 5123,
            "count": 720,
            "max": [
                259
            ],
            "min": [
                0
            ],
            "type": "SCALAR"
        },
        "Circle.018_buffer_accessor_0": {
            "bufferView": "Circle.018_buffer_view_0",
            "byteOffset": 0,
            "byteStride": 24,
            "componentType": 5126,
            "count": 64,
            "max": [
                4.425392150878906,
                1.8315889835357666,
                5.898072242736816
            ],
            "min": [
                -3.164187431335449,
                -0.9746643304824829,
                -0.2641734480857849
            ],
            "type": "VEC3"
        },
        "Circle.018_buffer_accessor_1": {
            "bufferView": "Circle.018_buffer_view_0",
            "byteOffset": 12,
            "byteStride": 24,
            "componentType": 5126,
            "count": 64,
            "max": [
                0.9385516047477722,
                0,
                0.9826877117156982
            ],
            "min": [
                0,
                -0.18526996672153473,
                0
            ],
            "type": "VEC3"
        },
        "Circle.018_buffer_accessor_2": {
            "bufferView": "Circle.018_buffer_view_1",
            "byteOffset": 0,
            "byteStride": 2,
            "componentType": 5123,
            "count": 180,
            "max": [
                63
            ],
            "min": [
                0
            ],
            "type": "SCALAR"
        },
        "Cylinder_buffer_accessor_0": {
            "bufferView": "Cylinder_buffer_view_0",
            "byteOffset": 0,
            "byteStride": 24,
            "componentType": 5126,
            "count": 832,
            "max": [
                1.2076430320739746,
                1.2315914630889893,
                1.1619426012039185
            ],
            "min": [
                -1.0283982753753662,
                -1.1001719236373901,
                -0.646065890789032
            ],
            "type": "VEC3"
        },
        "Cylinder_buffer_accessor_1": {
            "bufferView": "Cylinder_buffer_view_0",
            "byteOffset": 12,
            "byteStride": 24,
            "componentType": 5126,
            "count": 832,
            "max": [
                0.9783927202224731,
                0.9891713857650757,
                0.9994455575942993
            ],
            "min": [
                -0.9923883080482483,
                -0.9685536026954651,
                -1.0
            ],
            "type": "VEC3"
        },
        "Cylinder_buffer_accessor_2": {
            "bufferView": "Cylinder_buffer_view_1",
            "byteOffset": 0,
            "byteStride": 2,
            "componentType": 5123,
            "count": 1332,
            "max": [
                831
            ],
            "min": [
                0
            ],
            "type": "SCALAR"
        }
    },
    "asset": {
        "profile": {
            "api": "WebGL",
            "version": "1.0.3"
        },
        "version": "1.0"
    },
    "bufferViews": {
        "Circle.008_buffer_view_0": {
            "buffer": "Circle.008_buffer",
            "byteLength": 768,
            "byteOffset": 0,
            "target": 34962
        },
        "Circle.008_buffer_view_1": {
            "buffer": "Circle.008_buffer",
            "byteLength": 180,
            "byteOffset": 768,
            "target": 34963
        },
        "Circle.010_buffer_view_0": {
            "buffer": "Circle.010_buffer",
            "byteLength": 6240,
            "byteOffset": 0,
            "target": 34962
        },
        "Circle.010_buffer_view_1": {
            "buffer": "Circle.010_buffer",
            "byteLength": 1440,
            "byteOffset": 6240,
            "target": 34963
        },
        "Circle.018_buffer_view_0": {
            "buffer": "Circle.018_buffer",
            "byteLength": 1536,
            "byteOffset": 0,
            "target": 34962
        },
        "Circle.018_buffer_view_1": {
            "buffer": "Circle.018_buffer",
            "byteLength": 360,
            "byteOffset": 1536,
            "target": 34963
        },
        "Cylinder_buffer_view_0": {
            "buffer": "Cylinder_buffer",
            "byteLength": 19968,
            "byteOffset": 0,
            "target": 34962
        },
        "Cylinder_buffer_view_1": {
            "buffer": "Cylinder_buffer",
            "byteLength": 2664,
            "byteOffset": 19968,
            "target": 34963
        }
    },
    "buffers": {
        "Circle.008_buffer": {
            "byteLength": 948,
            "type": "arraybuffer",
            "uri": "data:text/plain;base64,"
        },
        "Circle.010_buffer": {
            "byteLength": 7680,
            "type": "arraybuffer",
            "uri": "data:text/plain;base64,"
        },
        "Circle.018_buffer": {
            "byteLength": 1896,
            "type": "arraybuffer",
            "uri": "data:text/plain;base64,"
        },
        "Cylinder_buffer": {
            "byteLength": 22632,
            "type": "arraybuffer",
            "uri": "data:text/plain;base64,"
        }
    },
    "cameras": {
        "Camera": {
            "perspective": {
                "aspectRatio": 1.703595982340029,
                "yfov": 0.5033799409866333,
                "zfar": 100.0,
                "znear": 0.10000000149011612
            },
            "type": "perspective"
        }
    },
    "extensionsUsed": [
        "KHR_materials_common"
    ],
    "extras": {
        "lights": {
            "Lamp": {
                "point": {
                    "color": [
                        1.0,
                        1.0,
                        1.0
                    ],
                    "constantAttenuation": 1,
                    "linearAttenuation": 0,
                    "quadraticAttenuation": 0.03333335240683057
                },
                "type": "point"
            }
        }
    },
    "materials": {
        "Material": {
            "extensions": {
                "KHR_materials_common": {
                    "technique": "PHONG",
                    "values": {
                        "ambient": [
                            1.0,
                            1.0,
                            1.0,
                            1.0
                        ],
                        "diffuse": [
                            0.64000004529953,
                            0.64000004529953,
                            0.64000004529953,
                            1.0
                        ],
                        "doubleSided": false,
                        "emission": [
                            0.0,
                            0.0,
                            0.0,
                            1.0
                        ],
                        "shininess": 50,
                        "specular": [
                            0.5,
                            0.5,
                            0.5,
                            1.0
                        ],
                        "transparency": 1.0,
                        "transparent": false
                    }
                }
            }
        },
        "Material.001": {
            "extensions": {
                "KHR_materials_common": {
                    "technique": "PHONG",
                    "values": {
                        "ambient": [
                            1.0,
                            1.0,
                            1.0,
                            1.0
                        ],
                        "diffuse": [
                            0.64000004529953,
                            0.0,
                            0.33575114607810974,
                            1.0
                        ],
                        "doubleSided": false,
                        "emission": [
                            0.0,
                            0.0,
                            0.0,
                            1.0
                        ],
                        "shininess": 50,
                        "specular": [
                            0.5,
                            0.5,
                            0.5,
                            1.0
                        ],
                        "transparency": 1.0,
                        "transparent": false
                    }
                }
            }
        },
        "Material.002": {
            "extensions": {
                "KHR_materials_common": {
                    "technique": "PHONG",
                    "values": {
                        "ambient": [
                            1.0,
                            1.0,
                            1.0,
                            1.0
                        ],
                        "diffuse": [
                            0.8000000715255737,
                            0.5273804068565369,
                            0.0,
                            1.0
                        ],
                        "doubleSided": false,
                        "emission": [
                            0.0,
                            0.0,
                            0.0,
                            1.0
                        ],
                        "shininess": 50,
                        "specular": [
                            0.5,
                            0.5,
                            0.5,
                            1.0
                        ],
                        "transparency": 1.0,
                        "transparent": false
                    }
                }
            }
        },
        "Material.003": {
            "extensions": {
                "KHR_materials_common": {
                    "technique": "PHONG",
                    "values": {
                        "ambient": [
                            1.0,
                            1.0,
                            1.0,
                            1.0
                        ],
                        "diffuse": [
                            0.011501718312501907,
                            0.64000004529953,
                            0.00040049906237982213,
                            1.0
                        ],
                        "doubleSided": false,
                        "emission": [
                            0.0,
                            0.0,
                            0.0,
                            1.0
                        ],
                        "shininess": 50,
                        "specular": [
                            0.0512365996837616,
                            0.0512365996837616,
                            0.0512365996837616,
                            1.0
                        ],
                        "transparency": 1.0,
                        "transparent": false
                    }
                }
            }
        },
        "Material.004": {
            "extensions": {
                "KHR_materials_common": {
                    "technique": "PHONG",
                    "values": {
                        "ambient": [
                            1.0,
                            1.0,
                            1.0,
                            1.0
                        ],
                        "diffuse": [
                            0.64000004529953,
                            0.0,
                            0.1970101147890091,
                            1.0
                        ],
                        "doubleSided": false,
                        "emission": [
                            0.0,
                            0.0,
                            0.0,
                            1.0
                        ],
                        "shininess": 50,
                        "specular": [
                            0.5,
                            0.5,
                            0.5,
                            1.0
                        ],
                        "transparency": 1.0,
                        "transparent": false
                    }
                }
            }
        },
        "Material.005": {
            "extensions": {
                "KHR_materials_common": {
                    "technique": "PHONG",
                    "values": {
                        "ambient": [
                            1.0,
                            1.0,
                            1.0,
                            1.0
                        ],
                        "diffuse": [
                            0.0013796560233458877,
                            0.5120000243186951,
                            0.0,
                            1.0
                        ],
                        "doubleSided": false,
                        "emission": [
                            0.0,
                            0.0,
                            0.0,
                            1.0
                        ],
                        "shininess": 50,
                        "specular": [
                            0.5,
                            0.5,
                            0.5,
                            1.0
                        ],
                        "transparency": 1.0,
                        "transparent": false
                    }
                }
            }
        }
    },
    "meshes": {
        "Circle.008": {
            "name": "Circle.008",
            "primitives": [
                {
                    "attributes": {
                        "NORMAL": "Circle.008_buffer_accessor_1",
                        "POSITION": "Circle.008_buffer_accessor_0"
                    },
                    "indices": "Circle.008_buffer_accessor_2",
                    "material": "Material.002",
                    "mode": 4
                }
            ]
        },
        "Circle.010": {
            "name": "Circle.010",
            "primitives": [
                {
                    "attributes": {
                        "NORMAL": "Circle.010_buffer_accessor_1",
                        "POSITION": "Circle.010_buffer_accessor_0"
                    },
                    "indices": "Circle.010_buffer_accessor_2",
                    "material": "Material.004",
                    "mode": 4
                }
            ]
        },
        "Circle.018": {
            "name": "Circle.018",
            "primitives": [
                {
                    "attributes": {
                        "NORMAL": "Circle.018_buffer_accessor_1",
                        "POSITION": "Circle.018_buffer_accessor_0"
                    },
                    "indices": "Circle.018_buffer_accessor_2",
                    "material": "Material.005",
                    "mode": 4
                }
            ]
        },
        "Cylinder": {
            "name": "Cylinder",
            "primitives": [
                {
                    "attributes": {
                        "NORMAL": "Cylinder_buffer_accessor_1",
                        "POSITION": "Cylinder_buffer_accessor_0"
                    },
                    "indices": "Cylinder_buffer_accessor_2",
                    "material": "Material.003",
                    "mode": 4
                }
            ]
        }
    },
    "nodes": {
        "Camera": {
            "camera": "Camera",
            "children": [],
            "matrix": [
                0.6859206557273865,
                0.7276763319969177,
                0.0,
                0.0,
                -0.32401347160339355,
                0.305420845746994,
                0.8953956365585327,
                0.0,
                0.6515582203865051,
                -0.6141703724861145,
                0.44527140259742737,
                0.0,
                7.481131553649902,
                -6.5076398849487305,
                9.515664100646973,
                1.0
            ],
            "name": "Camera"
        },
        "Circle": {
            "children": [],
            "matrix": [
                -0.35090768337249756,
                -1.143402386105663e-07,
                0.0,
                0.0,
                9.364300979086693e-08,
                -0.28738832473754883,
                0.20135577023029327,
                0.0,
                -6.561003829119727e-08,
                0.20135577023029327,
                0.28738832473754883,
                0.0,
                -0.11782307922840118,
                0.15808187425136566,
                2.926806926727295,
                1.0
            ],
            "meshes": [
                "Circle.008"
            ],
            "name": "Circle"
        },
        "Circle.002": {
            "children": [],
            "matrix": [
                0.3919999897480011,
                0.0,
                0.0,
                0.0,
                0.0,
                0.31426742672920227,
                0.2343074530363083,
                0.0,
                0.0,
                -0.2343074530363083,
                0.31426742672920227,
                0.0,
                -0.10198026150465012,
                0.08603833615779877,
                2.8373427391052246,
                1.0
            ],
            "meshes": [
                "Circle.010"
            ],
            "name": "Circle.002"
        },
        "Circle.003": {
            "children": [],
            "matrix": [
                -0.1910235732793808,
                -0.08107797056436539,
                0.11533910781145096,
                0.0,
                0.06940732896327972,
                -0.22314371168613434,
                -0.041907768696546555,
                0.0,
                0.12271662056446075,
                2.737099258354192e-08,
                0.20324216783046722,
                0.0,
                -0.3142133951187134,
                0.19764329493045807,
                1.5773403644561768,
                1.0
            ],
            "meshes": [
                "Circle.018"
            ],
            "name": "Circle.003"
        },
        "Cylinder": {
            "children": [],
            "matrix": [
                0.12183815985918045,
                0.0,
                0.0,
                0.0,
                0.0,
                0.12183815985918045,
                0.0,
                0.0,
                0.0,
                0.0,
                1.607200026512146,
                0.0,
                -0.11800433695316315,
                0.1255704015493393,
                0.972620964050293,
                1.0
            ],
            "meshes": [
                "Cylinder"
            ],
            "name": "Cylinder"
        },
        "Lamp": {
            "children": [],
            "extras": {
                "light": "Lamp"
            },
            "matrix": [
                -0.29086464643478394,
                0.9551711678504944,
                -0.05518905818462372,
                0.0,
                -0.7711008191108704,
                -0.1998833566904068,
                0.6045247316360474,
                0.0,
                0.5663931965827942,
                0.21839119493961334,
                0.7946722507476807,
                0.0,
                4.076245307922363,
                1.0054539442062378,
                10.075860977172852,
                1.0
            ],
            "name": "Lamp"
        },
        "Scene_root": {
            "children": [
                "Circle.003",
                "Circle.002",
                "Cylinder",
                "Circle",
                "Lamp",
                "Camera"
            ],
            "matrix": [
                -1.0,
                0.0,
                0.0,
                0.0,
                0.0,
                0.0,
                1.0,
                0.0,
                0.0,
                1.0,
                0.0,
                0.0,
                0.0,
                0.0,
                0.0,
                1.0
            ],
            "name": "Scene_root"
        }
    },
    "samplers": {
        "default": {}
    },
    "scene": "Scene",
    "scenes": {
        "Scene": {
            "extras": {
                "active_camera": "Camera",
                "background_color": [
                    0.05087608844041824,
                    0.05087608844041824,
                    0.05087608844041824
                ],
                "frames_per_second": 24
            },
            "nodes": [
                "Scene_root"
            ]
        }
    }
}
