{
    "accessors": {
        "Sphere_buffer_accessor_0": {
            "bufferView": "Sphere_buffer_view_0",
            "byteOffset": 0,
            "byteStride": 24,
            "componentType": 5126,
            "count": 26560,
            "max": [
                5.704843521118164,
                5.704843521118164,
                0.8878955841064453
            ],
            "min": [
                -5.704843521118164,
                -5.704843521118164,
                -11.152107238769531
            ],
            "type": "VEC3"
        },
        "Sphere_buffer_accessor_1": {
            "bufferView": "Sphere_buffer_view_0",
            "byteOffset": 12,
            "byteStride": 24,
            "componentType": 5126,
            "count": 26560,
            "max": [
                0.9951410293579102,
                0.9956046342849731,
                0.9999894499778748
            ],
            "min": [
                -0.9951410293579102,
                -0.9951846599578857,
                -0.9990530610084534
            ],
            "type": "VEC3"
        },
        "Sphere_buffer_accessor_2": {
            "bufferView": "Sphere_buffer_view_1",
            "byteOffset": 0,
            "byteStride": 2,
            "componentType": 5123,
            "count": 23040,
            "max": [
                26558
            ],
            "min": [
                0
            ],
            "type": "SCALAR"
        },
        "Sphere_buffer_accessor_3": {
            "bufferView": "Sphere_buffer_view_2",
            "byteOffset": 0,
            "byteStride": 2,
            "componentType": 5123,
            "count": 13812,
            "max": [
                26559
            ],
            "min": [
                0
            ],
            "type": "SCALAR"
        },
        "Sphere_buffer_accessor_4": {
            "bufferView": "Sphere_buffer_view_3",
            "byteOffset": 0,
            "byteStride": 2,
            "componentType": 5123,
            "count": 2880,
            "max": [
                26550
            ],
            "min": [
                0
            ],
            "type": "SCALAR"
        }
    },
    "asset": {
        "profile": {
            "api": "WebGL",
            "version": "1.0.3"
        },
        "version": "1.0"
    },
    "bufferViews": {
        "Sphere_buffer_view_0": {
            "buffer": "Sphere_buffer",
            "byteLength": 637440,
            "byteOffset": 0,
            "target": 34962
        },
        "Sphere_buffer_view_1": {
            "buffer": "Sphere_buffer",
            "byteLength": 46080,
            "byteOffset": 637440,
            "target": 34963
        },
        "Sphere_buffer_view_2": {
            "buffer": "Sphere_buffer",
            "byteLength": 27624,
            "byteOffset": 683520,
            "target": 34963
        },
        "Sphere_buffer_view_3": {
            "buffer": "Sphere_buffer",
            "byteLength": 5760,
            "byteOffset": 711144,
            "target": 34963
        }
    },
    "buffers": {
        "Sphere_buffer": {
            "byteLength": 716904,
            "type": "arraybuffer",
            "uri": "data:text/plain;base64,"
        }
    },
    "cameras": {
        "Camera": {
            "perspective": {
                "aspectRatio": 1.703595982340029,
                "yfov": 0.5033799409866333,
                "zfar": 100.0,
                "znear": 0.10000000149011612
            },
            "type": "perspective"
        }
    },
    "extensionsUsed": [
        "KHR_materials_common"
    ],
    "extras": {
        "lights": {
            "Lamp": {
                "point": {
                    "color": [
                        1.0,
                        1.0,
                        1.0
                    ],
                    "constantAttenuation": 1,
                    "linearAttenuation": 0,
                    "quadraticAttenuation": 0.03333335240683057
                },
                "type": "point"
            }
        }
    },
    "materials": {
        "Material": {
            "extensions": {
                "KHR_materials_common": {
                    "technique": "PHONG",
                    "values": {
                        "ambient": [
                            1.0,
                            1.0,
                            1.0,
                            1.0
                        ],
                        "diffuse": [
                            0.64000004529953,
                            0.64000004529953,
                            0.64000004529953,
                            1.0
                        ],
                        "doubleSided": false,
                        "emission": [
                            0.0,
                            0.0,
                            0.0,
                            1.0
                        ],
                        "shininess": 50,
                        "specular": [
                            0.5,
                            0.5,
                            0.5,
                            1.0
                        ],
                        "transparency": 1.0,
                        "transparent": false
                    }
                }
            }
        },
        "Material.001": {
            "extensions": {
                "KHR_materials_common": {
                    "technique": "PHONG",
                    "values": {
                        "ambient": [
                            1.0,
                            1.0,
                            1.0,
                            1.0
                        ],
                        "diffuse": [
                            0.7874124050140381,
                            0.0,
                            0.1932004988193512,
                            1.0
                        ],
                        "doubleSided": false,
                        "emission": [
                            0.0,
                            0.0,
                            0.0,
                            1.0
                        ],
                        "shininess": 50,
                        "specular": [
                            0.5,
                            0.5,
                            0.5,
                            1.0
                        ],
                        "transparency": 1.0,
                        "transparent": false
                    }
                }
            }
        },
        "Material.002": {
            "extensions": {
                "KHR_materials_common": {
                    "technique": "PHONG",
                    "values": {
                        "ambient": [
                            1.0,
                            1.0,
                            1.0,
                            1.0
                        ],
                        "diffuse": [
                            0.800000011920929,
                            0.800000011920929,
                            0.006113456096500158,
                            1.0
                        ],
                        "doubleSided": false,
                        "emission": [
                            0.0,
                            0.0,
                            0.0,
                            1.0
                        ],
                        "shininess": 50,
                        "specular": [
                            0.5,
                            0.5,
                            0.5,
                            1.0
                        ],
                        "transparency": 1.0,
                        "transparent": false
                    }
                }
            }
        },
        "Material.003": {
            "extensions": {
                "KHR_materials_common": {
                    "technique": "PHONG",
                    "values": {
                        "ambient": [
                            1.0,
                            1.0,
                            1.0,
                            1.0
                        ],
                        "diffuse": [
                            0.013847582042217255,
                            0.3840000629425049,
                            0.0,
                            1.0
                        ],
                        "doubleSided": false,
                        "emission": [
                            0.0,
                            0.0,
                            0.0,
                            1.0
                        ],
                        "shininess": 50,
                        "specular": [
                            0.5,
                            0.5,
                            0.5,
                            1.0
                        ],
                        "transparency": 1.0,
                        "transparent": false
                    }
                }
            }
        }
    },
    "meshes": {
        "Sphere": {
            "name": "Sphere",
            "primitives": [
                {
                    "attributes": {
                        "NORMAL": "Sphere_buffer_accessor_1",
                        "POSITION": "Sphere_buffer_accessor_0"
                    },
                    "indices": "Sphere_buffer_accessor_2",
                    "material": "Material.001",
                    "mode": 4
                },
                {
                    "attributes": {
                        "NORMAL": "Sphere_buffer_accessor_1",
                        "POSITION": "Sphere_buffer_accessor_0"
                    },
                    "indices": "Sphere_buffer_accessor_3",
                    "material": "Material.003",
                    "mode": 4
                },
                {
                    "attributes": {
                        "NORMAL": "Sphere_buffer_accessor_1",
                        "POSITION": "Sphere_buffer_accessor_0"
                    },
                    "indices": "Sphere_buffer_accessor_4",
                    "material": "Material.002",
                    "mode": 4
                }
            ]
        }
    },
    "nodes": {
        "Scene_root": {
            "children": [
                "Sphere"
            ],
            "matrix": [
                -1.0,
                0.0,
                0.0,
                0.0,
                0.0,
                0.0,
                1.0,
                0.0,
                0.0,
                1.0,
                0.0,
                0.0,
                0.0,
                0.0,
                0.0,
                1.0
            ],
            "name": "Scene_root"
        },
        "Sphere": {
            "children": [],
            "matrix": [
                -1.221500678383336e-08,
                0.2794467806816101,
                -0.10171028226613998,
                0.0,
                -0.29738104343414307,
                -1.2998937926056442e-08,
                0.0,
                0.0,
                -4.445897872074056e-09,
                0.10171028226613998,
                0.2794467806816101,
                0.0,
                -0.025543076917529106,
                0.035948291420936584,
                3.1050865650177,
                1.0
            ],
            "meshes": [
                "Sphere"
            ],
            "name": "Sphere"
        }
    },
    "samplers": {
        "default": {}
    },
    "scene": "Scene",
    "scenes": {
        "Scene": {
            "extras": {
                "active_camera": "",
                "background_color": [
                    0.05087608844041824,
                    0.05087608844041824,
                    0.05087608844041824
                ],
                "frames_per_second": 24
            },
            "nodes": [
                "Scene_root"
            ]
        }
    }
}
