{
    "accessors": {
        "Lopo-Pine.001_buffer_accessor_0": {
            "bufferView": "Lopo-Pine.001_buffer_view_0",
            "byteOffset": 0,
            "byteStride": 24,
            "componentType": 5126,
            "count": 64,
            "max": [
                0,
                0,
                1.9839640855789185
            ],
            "min": [
                -5.4871392250061035,
                -3.6837615966796875,
                -0.2937816381454468
            ],
            "type": "VEC3"
        },
        "Lopo-Pine.001_buffer_accessor_1": {
            "bufferView": "Lopo-Pine.001_buffer_view_0",
            "byteOffset": 12,
            "byteStride": 24,
            "componentType": 5126,
            "count": 64,
            "max": [
                0.9198032021522522,
                0.9198023676872253,
                0.09384854137897491
            ],
            "min": [
                -0.9198032021522522,
                -0.9198032021522522,
                -1.0
            ],
            "type": "VEC3"
        },
        "Lopo-Pine.001_buffer_accessor_2": {
            "bufferView": "Lopo-Pine.001_buffer_view_1",
            "byteOffset": 0,
            "byteStride": 2,
            "componentType": 5123,
            "count": 66,
            "max": [
                63
            ],
            "min": [
                0
            ],
            "type": "SCALAR"
        },
        "Lopo-Pine_buffer_accessor_0": {
            "bufferView": "Lopo-Pine_buffer_view_0",
            "byteOffset": 0,
            "byteStride": 24,
            "componentType": 5126,
            "count": 72,
            "max": [
                0,
                0,
                7.835871696472168
            ],
            "min": [
                -6.68781852722168,
                -4.884441375732422,
                0
            ],
            "type": "VEC3"
        },
        "Lopo-Pine_buffer_accessor_1": {
            "bufferView": "Lopo-Pine_buffer_view_0",
            "byteOffset": 12,
            "byteStride": 24,
            "componentType": 5126,
            "count": 72,
            "max": [
                0.8935617804527283,
                0.893561601638794,
                0.2540769875049591
            ],
            "min": [
                -0.893561840057373,
                -0.8935615420341492,
                -0.9908380508422852
            ],
            "type": "VEC3"
        },
        "Lopo-Pine_buffer_accessor_2": {
            "bufferView": "Lopo-Pine_buffer_view_1",
            "byteOffset": 0,
            "byteStride": 2,
            "componentType": 5123,
            "count": 72,
            "max": [
                71
            ],
            "min": [
                0
            ],
            "type": "SCALAR"
        }
    },
    "asset": {
        "profile": {
            "api": "WebGL",
            "version": "1.0.3"
        },
        "version": "1.0"
    },
    "bufferViews": {
        "Lopo-Pine.001_buffer_view_0": {
            "buffer": "Lopo-Pine.001_buffer",
            "byteLength": 1536,
            "byteOffset": 0,
            "target": 34962
        },
        "Lopo-Pine.001_buffer_view_1": {
            "buffer": "Lopo-Pine.001_buffer",
            "byteLength": 132,
            "byteOffset": 1536,
            "target": 34963
        },
        "Lopo-Pine_buffer_view_0": {
            "buffer": "Lopo-Pine_buffer",
            "byteLength": 1728,
            "byteOffset": 0,
            "target": 34962
        },
        "Lopo-Pine_buffer_view_1": {
            "buffer": "Lopo-Pine_buffer",
            "byteLength": 144,
            "byteOffset": 1728,
            "target": 34963
        }
    },
    "buffers": {
        "Lopo-Pine.001_buffer": {
            "byteLength": 1668,
            "type": "arraybuffer",
            "uri": "data:text/plain;base64,"
        },
        "Lopo-Pine_buffer": {
            "byteLength": 1872,
            "type": "arraybuffer",
            "uri": "data:text/plain;base64,"
        }
    },
    "cameras": {
        "Camera": {
            "perspective": {
                "aspectRatio": 1.703595982340029,
                "yfov": 0.5033799409866333,
                "zfar": 100.0,
                "znear": 0.10000000149011612
            },
            "type": "perspective"
        }
    },
    "extensionsUsed": [
        "KHR_materials_common"
    ],
    "extras": {
        "lights": {
            "Lamp": {
                "point": {
                    "color": [
                        1.0,
                        1.0,
                        1.0
                    ],
                    "constantAttenuation": 1,
                    "linearAttenuation": 0,
                    "quadraticAttenuation": 0.03333335240683057
                },
                "type": "point"
            }
        }
    },
    "materials": {
        "Material": {
            "extensions": {
                "KHR_materials_common": {
                    "technique": "PHONG",
                    "values": {
                        "ambient": [
                            1.0,
                            1.0,
                            1.0,
                            1.0
                        ],
                        "diffuse": [
                            0.64000004529953,
                            0.64000004529953,
                            0.64000004529953,
                            1.0
                        ],
                        "doubleSided": false,
                        "emission": [
                            0.0,
                            0.0,
                            0.0,
                            1.0
                        ],
                        "shininess": 50,
                        "specular": [
                            0.5,
                            0.5,
                            0.5,
                            1.0
                        ],
                        "transparency": 1.0,
                        "transparent": false
                    }
                }
            }
        },
        "Material.001": {
            "extensions": {
                "KHR_materials_common": {
                    "technique": "PHONG",
                    "values": {
                        "ambient": [
                            1.0,
                            1.0,
                            1.0,
                            1.0
                        ],
                        "diffuse": [
                            0.47406163811683655,
                            0.1389402598142624,
                            0.0,
                            1.0
                        ],
                        "doubleSided": false,
                        "emission": [
                            0.0,
                            0.0,
                            0.0,
                            1.0
                        ],
                        "shininess": 50,
                        "specular": [
                            0.5,
                            0.5,
                            0.5,
                            1.0
                        ],
                        "transparency": 1.0,
                        "transparent": false
                    }
                }
            }
        },
        "Material.002": {
            "extensions": {
                "KHR_materials_common": {
                    "technique": "PHONG",
                    "values": {
                        "ambient": [
                            1.0,
                            1.0,
                            1.0,
                            1.0
                        ],
                        "diffuse": [
                            0.009840689599514008,
                            0.40565386414527893,
                            0.0,
                            1.0
                        ],
                        "doubleSided": false,
                        "emission": [
                            0.0,
                            0.0,
                            0.0,
                            1.0
                        ],
                        "shininess": 50,
                        "specular": [
                            0.016454456374049187,
                            0.17527729272842407,
                            0.0,
                            1.0
                        ],
                        "transparency": 1.0,
                        "transparent": false
                    }
                }
            }
        }
    },
    "meshes": {
        "Lopo-Pine": {
            "name": "Lopo-Pine",
            "primitives": [
                {
                    "attributes": {
                        "NORMAL": "Lopo-Pine_buffer_accessor_1",
                        "POSITION": "Lopo-Pine_buffer_accessor_0"
                    },
                    "indices": "Lopo-Pine_buffer_accessor_2",
                    "material": "Material.002",
                    "mode": 4
                }
            ]
        },
        "Lopo-Pine.001": {
            "name": "Lopo-Pine.001",
            "primitives": [
                {
                    "attributes": {
                        "NORMAL": "Lopo-Pine.001_buffer_accessor_1",
                        "POSITION": "Lopo-Pine.001_buffer_accessor_0"
                    },
                    "indices": "Lopo-Pine.001_buffer_accessor_2",
                    "material": "Material.001",
                    "mode": 4
                }
            ]
        }
    },
    "nodes": {
        "Camera": {
            "camera": "Camera",
            "children": [],
            "matrix": [
                0.6859206557273865,
                0.7276763319969177,
                0.0,
                0.0,
                -0.32401347160339355,
                0.305420845746994,
                0.8953956365585327,
                0.0,
                0.6515582203865051,
                -0.6141703724861145,
                0.44527140259742737,
                0.0,
                7.481131553649902,
                -6.5076398849487305,
                5.34366512298584,
                1.0
            ],
            "name": "Camera"
        },
        "Lamp": {
            "children": [],
            "extras": {
                "light": "Lamp"
            },
            "matrix": [
                -0.29086464643478394,
                0.9551711678504944,
                -0.05518905818462372,
                0.0,
                -0.7711008191108704,
                -0.1998833566904068,
                0.6045247316360474,
                0.0,
                0.5663931965827942,
                0.21839119493961334,
                0.7946722507476807,
                0.0,
                4.076245307922363,
                1.0054539442062378,
                5.903861999511719,
                1.0
            ],
            "name": "Lamp"
        },
        "Lopo-Pine": {
            "children": [],
            "matrix": [
                1.0,
                0.0,
                0.0,
                0.0,
                0.0,
                1.0,
                0.0,
                0.0,
                0.0,
                0.0,
                1.0,
                0.0,
                4.983942985534668,
                3.169339179992676,
                0.29015079140663147,
                1.0
            ],
            "meshes": [
                "Lopo-Pine"
            ],
            "name": "Lopo-Pine"
        },
        "Lopo-Pine.001": {
            "children": [],
            "matrix": [
                1.0,
                0.0,
                0.0,
                0.0,
                0.0,
                1.0,
                0.0,
                0.0,
                0.0,
                0.0,
                1.0,
                0.0,
                4.983942985534668,
                3.169339179992676,
                0.29015079140663147,
                1.0
            ],
            "meshes": [
                "Lopo-Pine.001"
            ],
            "name": "Lopo-Pine.001"
        },
        "Scene_root": {
            "children": [
                "Lopo-Pine.001",
                "Lopo-Pine",
                "Lamp",
                "Camera"
            ],
            "matrix": [
                -1.0,
                0.0,
                0.0,
                0.0,
                0.0,
                0.0,
                1.0,
                0.0,
                0.0,
                1.0,
                0.0,
                0.0,
                0.0,
                0.0,
                0.0,
                1.0
            ],
            "name": "Scene_root"
        }
    },
    "samplers": {
        "default": {}
    },
    "scene": "Scene",
    "scenes": {
        "Scene": {
            "extras": {
                "active_camera": "Camera",
                "background_color": [
                    0.05087608844041824,
                    0.05087608844041824,
                    0.05087608844041824
                ],
                "frames_per_second": 24
            },
            "nodes": [
                "Scene_root"
            ]
        }
    }
}
