{
    "accessors": {
        "Tapa_buffer_accessor_0": {
            "bufferView": "Tapa_buffer_view_0",
            "byteOffset": 0,
            "byteStride": 32,
            "componentType": 5126,
            "count": 1190,
            "max": [
                0.23329173028469086,
                0.11389145255088806,
                0.23399998247623444
            ],
            "min": [
                -0.2347082644701004,
                -0.9055466055870056,
                -0.23400001227855682
            ],
            "type": "VEC3"
        },
        "Tapa_buffer_accessor_1": {
            "bufferView": "Tapa_buffer_view_0",
            "byteOffset": 12,
            "byteStride": 32,
            "componentType": 5126,
            "count": 1190,
            "max": [
                0.9981100559234619,
                0.9996617436408997,
                0.9981099367141724
            ],
            "min": [
                -0.9981100559234619,
                -1.0,
                -0.9981100559234619
            ],
            "type": "VEC3"
        },
        "Tapa_buffer_accessor_2": {
            "bufferView": "Tapa_buffer_view_0",
            "byteOffset": 24,
            "byteStride": 32,
            "componentType": 5126,
            "count": 1190,
            "max": [
                1.0,
                1.0
            ],
            "min": [
                0,
                0
            ],
            "type": "VEC2"
        },
        "Tapa_buffer_accessor_3": {
            "bufferView": "Tapa_buffer_view_1",
            "byteOffset": 0,
            "byteStride": 2,
            "componentType": 5123,
            "count": 672,
            "max": [
                1185
            ],
            "min": [
                0
            ],
            "type": "SCALAR"
        },
        "Tapa_buffer_accessor_4": {
            "bufferView": "Tapa_buffer_view_2",
            "byteOffset": 0,
            "byteStride": 2,
            "componentType": 5123,
            "count": 1362,
            "max": [
                1189
            ],
            "min": [
                0
            ],
            "type": "SCALAR"
        }
    },
    "asset": {
        "profile": {
            "api": "WebGL",
            "version": "1.0.3"
        },
        "version": "1.0"
    },
    "bufferViews": {
        "Tapa_buffer_view_0": {
            "buffer": "Tapa_buffer",
            "byteLength": 38080,
            "byteOffset": 0,
            "target": 34962
        },
        "Tapa_buffer_view_1": {
            "buffer": "Tapa_buffer",
            "byteLength": 1344,
            "byteOffset": 38080,
            "target": 34963
        },
        "Tapa_buffer_view_2": {
            "buffer": "Tapa_buffer",
            "byteLength": 2724,
            "byteOffset": 39424,
            "target": 34963
        }
    },
    "buffers": {
        "Tapa_buffer": {
            "byteLength": 42148,
            "type": "arraybuffer",
            "uri": "data:text/plain;base64,"
        }
    },
    "cameras": {
        "Camera": {
            "perspective": {
                "aspectRatio": 1.703595982340029,
                "yfov": 0.5033799409866333,
                "zfar": 100.0,
                "znear": 0.10000000149011612
            },
            "type": "perspective"
        }
    },
    "extensionsUsed": [
        "KHR_materials_common"
    ],
    "extras": {
        "lights": {
            "Lamp": {
                "point": {
                    "color": [
                        1.0,
                        1.0,
                        1.0
                    ],
                    "constantAttenuation": 1,
                    "linearAttenuation": 0,
                    "quadraticAttenuation": 0.03333335240683057
                },
                "type": "point"
            }
        }
    },
    "materials": {
        "Material": {
            "extensions": {
                "KHR_materials_common": {
                    "technique": "PHONG",
                    "values": {
                        "ambient": [
                            1.0,
                            1.0,
                            1.0,
                            1.0
                        ],
                        "diffuse": [
                            0.64000004529953,
                            0.64000004529953,
                            0.64000004529953,
                            1.0
                        ],
                        "doubleSided": false,
                        "emission": [
                            0.0,
                            0.0,
                            0.0,
                            1.0
                        ],
                        "shininess": 50,
                        "specular": [
                            0.5,
                            0.5,
                            0.5,
                            1.0
                        ],
                        "transparency": 1.0,
                        "transparent": false
                    }
                }
            }
        },
        "Tapa": {
            "extensions": {
                "KHR_materials_common": {
                    "technique": "PHONG",
                    "values": {
                        "ambient": [
                            1.0,
                            1.0,
                            1.0,
                            1.0
                        ],
                        "diffuse": [
                            0.5226666927337646,
                            0.5226666927337646,
                            0.5226666927337646,
                            1.0
                        ],
                        "doubleSided": false,
                        "emission": [
                            0.0,
                            0.0,
                            0.0,
                            1.0
                        ],
                        "shininess": 50,
                        "specular": [
                            0.5,
                            0.5,
                            0.5,
                            1.0
                        ],
                        "transparency": 1.0,
                        "transparent": false
                    }
                }
            }
        },
        "salero": {
            "extensions": {
                "KHR_materials_common": {
                    "technique": "PHONG",
                    "values": {
                        "ambient": [
                            1.0,
                            1.0,
                            1.0,
                            1.0
                        ],
                        "diffuse": [
                            1.0,
                            1.0,
                            1.0,
                            1.0
                        ],
                        "doubleSided": false,
                        "emission": [
                            0.0,
                            0.0,
                            0.0,
                            1.0
                        ],
                        "shininess": 50,
                        "specular": [
                            0.4933333396911621,
                            0.4933333396911621,
                            0.4933333396911621,
                            1.0
                        ],
                        "transparency": 1.0,
                        "transparent": false
                    }
                }
            }
        }
    },
    "meshes": {
        "Tapa": {
            "name": "Tapa",
            "primitives": [
                {
                    "attributes": {
                        "NORMAL": "Tapa_buffer_accessor_1",
                        "POSITION": "Tapa_buffer_accessor_0",
                        "TEXCOORD_0": "Tapa_buffer_accessor_2"
                    },
                    "indices": "Tapa_buffer_accessor_3",
                    "material": "salero",
                    "mode": 4
                },
                {
                    "attributes": {
                        "NORMAL": "Tapa_buffer_accessor_1",
                        "POSITION": "Tapa_buffer_accessor_0",
                        "TEXCOORD_0": "Tapa_buffer_accessor_2"
                    },
                    "indices": "Tapa_buffer_accessor_4",
                    "material": "Tapa",
                    "mode": 4
                }
            ]
        }
    },
    "nodes": {
        "Camera": {
            "camera": "Camera",
            "children": [],
            "matrix": [
                0.6859206557273865,
                0.7276763319969177,
                0.0,
                0.0,
                -0.32401347160339355,
                0.305420845746994,
                0.8953956365585327,
                0.0,
                0.6515582203865051,
                -0.6141703724861145,
                0.44527140259742737,
                0.0,
                7.481131553649902,
                -6.5076398849487305,
                5.34366512298584,
                1.0
            ],
            "name": "Camera"
        },
        "Lamp": {
            "children": [],
            "extras": {
                "light": "Lamp"
            },
            "matrix": [
                -0.29086464643478394,
                0.9551711678504944,
                -0.05518905818462372,
                0.0,
                -0.7711008191108704,
                -0.1998833566904068,
                0.6045247316360474,
                0.0,
                0.5663931965827942,
                0.21839119493961334,
                0.7946722507476807,
                0.0,
                4.076245307922363,
                1.0054539442062378,
                5.903861999511719,
                1.0
            ],
            "name": "Lamp"
        },
        "Scene_root": {
            "children": [
                "Tapa",
                "Lamp",
                "Camera"
            ],
            "matrix": [
                -1.0,
                0.0,
                0.0,
                0.0,
                0.0,
                0.0,
                1.0,
                0.0,
                0.0,
                1.0,
                0.0,
                0.0,
                0.0,
                0.0,
                0.0,
                1.0
            ],
            "name": "Scene_root"
        },
        "Tapa": {
            "children": [],
            "matrix": [
                1.8805162906646729,
                0.0,
                0.0,
                0.0,
                0.0,
                -3.063750000364962e-07,
                1.8805162906646729,
                0.0,
                0.0,
                -1.8805162906646729,
                -3.063750000364962e-07,
                0.0,
                0.0010200809920206666,
                -1.0669057814993721e-07,
                1.7179611921310425,
                1.0
            ],
            "meshes": [
                "Tapa"
            ],
            "name": "Tapa"
        }
    },
    "samplers": {
        "default": {}
    },
    "scene": "Scene",
    "scenes": {
        "Scene": {
            "extras": {
                "active_camera": "Camera",
                "background_color": [
                    0.05087608844041824,
                    0.05087608844041824,
                    0.05087608844041824
                ],
                "frames_per_second": 24
            },
            "nodes": [
                "Scene_root"
            ]
        }
    }
}
