{
    "accessors": {
        "Mesh_buffer_accessor_0": {
            "bufferView": "Mesh_buffer_view_0",
            "byteOffset": 0,
            "byteStride": 24,
            "componentType": 5126,
            "count": 26108,
            "max": [
                2.4746129512786865,
                2.4847090244293213,
                9.130309104919434
            ],
            "min": [
                -2.425055742263794,
                -2.418199300765991,
                0
            ],
            "type": "VEC3"
        },
        "Mesh_buffer_accessor_1": {
            "bufferView": "Mesh_buffer_view_0",
            "byteOffset": 12,
            "byteStride": 24,
            "componentType": 5126,
            "count": 26108,
            "max": [
                0.999969482421875,
                0.999969482421875,
                0.9991506934165955
            ],
            "min": [
                -0.999969482421875,
                -0.99993896484375,
                -0.8965117335319519
            ],
            "type": "VEC3"
        },
        "Mesh_buffer_accessor_2": {
            "bufferView": "Mesh_buffer_view_1",
            "byteOffset": 0,
            "byteStride": 2,
            "componentType": 5123,
            "count": 14532,
            "max": [
                26106
            ],
            "min": [
                0
            ],
            "type": "SCALAR"
        },
        "Mesh_buffer_accessor_3": {
            "bufferView": "Mesh_buffer_view_2",
            "byteOffset": 0,
            "byteStride": 2,
            "componentType": 5123,
            "count": 74484,
            "max": [
                26107
            ],
            "min": [
                0
            ],
            "type": "SCALAR"
        }
    },
    "asset": {
        "profile": {
            "api": "WebGL",
            "version": "1.0.3"
        },
        "version": "1.0"
    },
    "bufferViews": {
        "Mesh_buffer_view_0": {
            "buffer": "Mesh_buffer",
            "byteLength": 626592,
            "byteOffset": 0,
            "target": 34962
        },
        "Mesh_buffer_view_1": {
            "buffer": "Mesh_buffer",
            "byteLength": 29064,
            "byteOffset": 626592,
            "target": 34963
        },
        "Mesh_buffer_view_2": {
            "buffer": "Mesh_buffer",
            "byteLength": 148968,
            "byteOffset": 655656,
            "target": 34963
        }
    },
    "buffers": {
        "Mesh_buffer": {
            "byteLength": 804624,
            "type": "arraybuffer",
            "uri": "data:text/plain;base64,"
        }
    },
    "cameras": {
        "Camera": {
            "perspective": {
                "aspectRatio": 1.703595982340029,
                "yfov": 0.5033799409866333,
                "zfar": 100.0,
                "znear": 0.10000000149011612
            },
            "type": "perspective"
        }
    },
    "extensionsUsed": [
        "KHR_materials_common"
    ],
    "extras": {
        "lights": {}
    },
    "images": {
        "Render Result": {
            "uri": ""
        }
    },
    "materials": {
        "Material.002": {
            "extensions": {
                "KHR_materials_common": {
                    "technique": "PHONG",
                    "values": {
                        "ambient": [
                            1.0,
                            1.0,
                            1.0,
                            1.0
                        ],
                        "diffuse": [
                            0.14000004529953,
                            0.64000004529953,
                            0.14000004529953,
                            1.0
                        ],
                        "doubleSided": false,
                        "emission": [
                            0.0,
                            0.0,
                            0.0,
                            1.0
                        ],
                        "shininess": 50,
                        "specular": [
                            0.5,
                            0.5,
                            0.5,
                            1.0
                        ],
                        "transparency": 1.0,
                        "transparent": false
                    }
                }
            }
        },
        "Material.003": {
            "extensions": {
                "KHR_materials_common": {
                    "technique": "PHONG",
                    "values": {
                        "ambient": [
                            1.0,
                            1.0,
                            1.0,
                            1.0
                        ],
                        "diffuse": [
                            0.64000004529953,
                            0.44000004529953,
                            0.24000004529953,
                            1.0
                        ],
                        "doubleSided": false,
                        "emission": [
                            0.0,
                            0.0,
                            0.0,
                            1.0
                        ],
                        "shininess": 50,
                        "specular": [
                            0.5,
                            0.5,
                            0.5,
                            1.0
                        ],
                        "transparency": 1.0,
                        "transparent": false
                    }
                }
            }
        }
    },
    "meshes": {
        "Mesh": {
            "name": "Mesh",
            "primitives": [
                {
                    "attributes": {
                        "NORMAL": "Mesh_buffer_accessor_1",
                        "POSITION": "Mesh_buffer_accessor_0"
                    },
                    "indices": "Mesh_buffer_accessor_2",
                    "material": "Material.002",
                    "mode": 4
                },
                {
                    "attributes": {
                        "NORMAL": "Mesh_buffer_accessor_1",
                        "POSITION": "Mesh_buffer_accessor_0"
                    },
                    "indices": "Mesh_buffer_accessor_3",
                    "material": "Material.003",
                    "mode": 4
                }
            ]
        }
    },
    "nodes": {
        "Scene_root": {
            "children": [
                "tree"
            ],
            "matrix": [
                -1.0,
                0.0,
                0.0,
                0.0,
                0.0,
                0.0,
                1.0,
                0.0,
                0.0,
                1.0,
                0.0,
                0.0,
                0.0,
                0.0,
                0.0,
                1.0
            ],
            "name": "Scene_root"
        },
        "tree": {
            "children": [],
            "matrix": [
                1.0,
                0.0,
                0.0,
                0.0,
                0.0,
                1.0,
                0.0,
                0.0,
                0.0,
                0.0,
                1.0,
                0.0,
                0.0,
                0.0,
                0.0,
                1.0
            ],
            "meshes": [
                "Mesh"
            ],
            "name": "tree"
        }
    },
    "samplers": {
        "default": {}
    },
    "scene": "Scene",
    "scenes": {
        "Scene": {
            "extras": {
                "active_camera": "",
                "background_color": [
                    0.05087608844041824,
                    0.05087608844041824,
                    0.05087608844041824
                ],
                "frames_per_second": 24
            },
            "nodes": [
                "Scene_root"
            ]
        }
    }
}
