{
    "accessors": {
        "Cylinder_buffer_accessor_0": {
            "bufferView": "Cylinder_buffer_view_0",
            "byteOffset": 0,
            "byteStride": 24,
            "componentType": 5126,
            "count": 480,
            "max": [
                1.8525323867797852,
                1.8525323867797852,
                4.0
            ],
            "min": [
                -1.8525323867797852,
                -1.8525323867797852,
                -2.335415840148926
            ],
            "type": "VEC3"
        },
        "Cylinder_buffer_accessor_1": {
            "bufferView": "Cylinder_buffer_view_0",
            "byteOffset": 12,
            "byteStride": 24,
            "componentType": 5126,
            "count": 480,
            "max": [
                0.9235033988952637,
                0.9235033392906189,
                1.0
            ],
            "min": [
                -0.9235033988952637,
                -0.9235033988952637,
                -1.0
            ],
            "type": "VEC3"
        },
        "Cylinder_buffer_accessor_2": {
            "bufferView": "Cylinder_buffer_view_1",
            "byteOffset": 0,
            "byteStride": 2,
            "componentType": 5123,
            "count": 612,
            "max": [
                479
            ],
            "min": [
                0
            ],
            "type": "SCALAR"
        },
        "Cylinder_buffer_accessor_3": {
            "bufferView": "Cylinder_buffer_view_2",
            "byteOffset": 0,
            "byteStride": 2,
            "componentType": 5123,
            "count": 132,
            "max": [
                474
            ],
            "min": [
                0
            ],
            "type": "SCALAR"
        }
    },
    "asset": {
        "profile": {
            "api": "WebGL",
            "version": "1.0.3"
        },
        "version": "1.0"
    },
    "bufferViews": {
        "Cylinder_buffer_view_0": {
            "buffer": "Cylinder_buffer",
            "byteLength": 11520,
            "byteOffset": 0,
            "target": 34962
        },
        "Cylinder_buffer_view_1": {
            "buffer": "Cylinder_buffer",
            "byteLength": 1224,
            "byteOffset": 11520,
            "target": 34963
        },
        "Cylinder_buffer_view_2": {
            "buffer": "Cylinder_buffer",
            "byteLength": 264,
            "byteOffset": 12744,
            "target": 34963
        }
    },
    "buffers": {
        "Cylinder_buffer": {
            "byteLength": 13008,
            "type": "arraybuffer",
            "uri": "data:text/plain;base64,"
        }
    },
    "extensionsUsed": [
        "KHR_materials_common"
    ],
    "extras": {
        "lights": {}
    },
    "materials": {
        "Bark": {
            "extensions": {
                "KHR_materials_common": {
                    "technique": "PHONG",
                    "values": {
                        "ambient": [
                            1.0,
                            1.0,
                            1.0,
                            1.0
                        ],
                        "diffuse": [
                            0.16124503314495087,
                            0.07092447578907013,
                            0.020149488002061844,
                            1.0
                        ],
                        "doubleSided": false,
                        "emission": [
                            0.0,
                            0.0,
                            0.0,
                            1.0
                        ],
                        "shininess": 50,
                        "specular": [
                            0.0,
                            0.0,
                            0.0,
                            1.0
                        ],
                        "transparency": 1.0,
                        "transparent": false
                    }
                }
            }
        },
        "TreeLeaves": {
            "extensions": {
                "KHR_materials_common": {
                    "technique": "PHONG",
                    "values": {
                        "ambient": [
                            1.0,
                            1.0,
                            1.0,
                            1.0
                        ],
                        "diffuse": [
                            0.05330074951052666,
                            0.09154830127954483,
                            0.015505889430642128,
                            1.0
                        ],
                        "doubleSided": false,
                        "emission": [
                            0.0,
                            0.0,
                            0.0,
                            1.0
                        ],
                        "shininess": 50,
                        "specular": [
                            0.5,
                            0.5,
                            0.5,
                            1.0
                        ],
                        "transparency": 1.0,
                        "transparent": false
                    }
                }
            }
        }
    },
    "meshes": {
        "Cylinder": {
            "name": "Cylinder",
            "primitives": [
                {
                    "attributes": {
                        "NORMAL": "Cylinder_buffer_accessor_1",
                        "POSITION": "Cylinder_buffer_accessor_0"
                    },
                    "indices": "Cylinder_buffer_accessor_2",
                    "material": "TreeLeaves",
                    "mode": 4
                },
                {
                    "attributes": {
                        "NORMAL": "Cylinder_buffer_accessor_1",
                        "POSITION": "Cylinder_buffer_accessor_0"
                    },
                    "indices": "Cylinder_buffer_accessor_3",
                    "material": "Bark",
                    "mode": 4
                }
            ]
        }
    },
    "nodes": {
        "Cylinder": {
            "children": [],
            "matrix": [
                1.0,
                0.0,
                0.0,
                0.0,
                0.0,
                1.0,
                0.0,
                0.0,
                0.0,
                0.0,
                1.0,
                0.0,
                0.0,
                0.0,
                2.3132643699645996,
                1.0
            ],
            "meshes": [
                "Cylinder"
            ],
            "name": "Cylinder"
        },
        "Scene_root": {
            "children": [
                "Cylinder"
            ],
            "matrix": [
                -1.0,
                0.0,
                0.0,
                0.0,
                0.0,
                0.0,
                1.0,
                0.0,
                0.0,
                1.0,
                0.0,
                0.0,
                0.0,
                0.0,
                0.0,
                1.0
            ],
            "name": "Scene_root"
        }
    },
    "samplers": {
        "default": {}
    },
    "scene": "Scene",
    "scenes": {
        "Scene": {
            "extras": {
                "active_camera": "",
                "background_color": [
                    0.05087608844041824,
                    0.05087608844041824,
                    0.05087608844041824
                ],
                "frames_per_second": 24
            },
            "nodes": [
                "Scene_root"
            ]
        }
    }
}
