{
    "accessors": {
        "Torus.001_buffer_accessor_0": {
            "bufferView": "Torus.001_buffer_view_0",
            "byteOffset": 0,
            "byteStride": 24,
            "componentType": 5126,
            "count": 348,
            "max": [
                1.3308780193328857,
                2.8961730003356934,
                6.222912788391113
            ],
            "min": [
                -1.4914945363998413,
                -4.459346294403076,
                -0.10823959112167358
            ],
            "type": "VEC3"
        },
        "Torus.001_buffer_accessor_1": {
            "bufferView": "Torus.001_buffer_view_0",
            "byteOffset": 12,
            "byteStride": 24,
            "componentType": 5126,
            "count": 348,
            "max": [
                0.9977966547012329,
                0.710173487663269,
                1.0
            ],
            "min": [
                -0.9828868508338928,
                -0.91818767786026,
                -0.9998469948768616
            ],
            "type": "VEC3"
        },
        "Torus.001_buffer_accessor_2": {
            "bufferView": "Torus.001_buffer_view_1",
            "byteOffset": 0,
            "byteStride": 2,
            "componentType": 5123,
            "count": 582,
            "max": [
                347
            ],
            "min": [
                0
            ],
            "type": "SCALAR"
        },
        "Torus_buffer_accessor_0": {
            "bufferView": "Torus_buffer_view_0",
            "byteOffset": 0,
            "byteStride": 24,
            "componentType": 5126,
            "count": 2362,
            "max": [
                0.3007776737213135,
                1.073094129562378,
                1.731823444366455
            ],
            "min": [
                -7.269720077514648,
                -17.171844482421875,
                -1.7566428184509277
            ],
            "type": "VEC3"
        },
        "Torus_buffer_accessor_1": {
            "bufferView": "Torus_buffer_view_0",
            "byteOffset": 12,
            "byteStride": 24,
            "componentType": 5126,
            "count": 2362,
            "max": [
                0.9967556595802307,
                0.9919556379318237,
                1.0
            ],
            "min": [
                -0.9967556595802307,
                -0.9862028360366821,
                -1.0
            ],
            "type": "VEC3"
        },
        "Torus_buffer_accessor_2": {
            "bufferView": "Torus_buffer_view_1",
            "byteOffset": 0,
            "byteStride": 2,
            "componentType": 5123,
            "count": 3492,
            "max": [
                2361
            ],
            "min": [
                0
            ],
            "type": "SCALAR"
        }
    },
    "asset": {
        "profile": {
            "api": "WebGL",
            "version": "1.0.3"
        },
        "version": "1.0"
    },
    "bufferViews": {
        "Torus.001_buffer_view_0": {
            "buffer": "Torus.001_buffer",
            "byteLength": 8352,
            "byteOffset": 0,
            "target": 34962
        },
        "Torus.001_buffer_view_1": {
            "buffer": "Torus.001_buffer",
            "byteLength": 1164,
            "byteOffset": 8352,
            "target": 34963
        },
        "Torus_buffer_view_0": {
            "buffer": "Torus_buffer",
            "byteLength": 56688,
            "byteOffset": 0,
            "target": 34962
        },
        "Torus_buffer_view_1": {
            "buffer": "Torus_buffer",
            "byteLength": 6984,
            "byteOffset": 56688,
            "target": 34963
        }
    },
    "buffers": {
        "Torus.001_buffer": {
            "byteLength": 9516,
            "type": "arraybuffer",
            "uri": "data:text/plain;base64,"
        },
        "Torus_buffer": {
            "byteLength": 63672,
            "type": "arraybuffer",
            "uri": "data:text/plain;base64,"
        }
    },
    "extensionsUsed": [
        "KHR_materials_common"
    ],
    "extras": {
        "lights": {
            "Point": {
                "point": {
                    "color": [
                        1.0,
                        1.0,
                        1.0
                    ],
                    "constantAttenuation": 1,
                    "linearAttenuation": 0,
                    "quadraticAttenuation": 0.04
                },
                "type": "point"
            },
            "Sun": {
                "directional": {
                    "color": [
                        1.0,
                        1.0,
                        1.0
                    ]
                },
                "type": "directional"
            }
        }
    },
    "images": {
        "steel-moldboard-walking-plow-clipart-etc-6zivSq-clipart.png": {
            "uri": "C:\\Users\\Johan\\Pictures\\steel-moldboard-walking-plow-clipart-etc-6zivSq-clipart.png"
        }
    },
    "materials": {
        "Material": {
            "extensions": {
                "KHR_materials_common": {
                    "technique": "PHONG",
                    "values": {
                        "ambient": [
                            1.0,
                            1.0,
                            1.0,
                            1.0
                        ],
                        "diffuse": [
                            0.15679116547107697,
                            0.03313542157411575,
                            0.0025994000025093555,
                            1.0
                        ],
                        "doubleSided": false,
                        "emission": [
                            0.0,
                            0.0,
                            0.0,
                            1.0
                        ],
                        "shininess": 50,
                        "specular": [
                            0.10000000149011612,
                            0.035776447504758835,
                            0.001864068559370935,
                            1.0
                        ],
                        "transparency": 1.0,
                        "transparent": false
                    }
                }
            }
        },
        "Material.001": {
            "extensions": {
                "KHR_materials_common": {
                    "technique": "BLINN",
                    "values": {
                        "ambient": [
                            1.0,
                            1.0,
                            1.0,
                            1.0
                        ],
                        "diffuse": [
                            0.21906569600105286,
                            0.1674574464559555,
                            0.13209699094295502,
                            1.0
                        ],
                        "doubleSided": false,
                        "emission": [
                            0.0,
                            0.0,
                            0.0,
                            1.0
                        ],
                        "shininess": 50,
                        "specular": [
                            1.0,
                            1.0,
                            1.0,
                            1.0
                        ],
                        "transparency": 1.0,
                        "transparent": false
                    }
                }
            }
        }
    },
    "meshes": {
        "Torus": {
            "name": "Torus",
            "primitives": [
                {
                    "attributes": {
                        "NORMAL": "Torus_buffer_accessor_1",
                        "POSITION": "Torus_buffer_accessor_0"
                    },
                    "indices": "Torus_buffer_accessor_2",
                    "material": "Material",
                    "mode": 4
                }
            ]
        },
        "Torus.001": {
            "name": "Torus.001",
            "primitives": [
                {
                    "attributes": {
                        "NORMAL": "Torus.001_buffer_accessor_1",
                        "POSITION": "Torus.001_buffer_accessor_0"
                    },
                    "indices": "Torus.001_buffer_accessor_2",
                    "material": "Material.001",
                    "mode": 4
                }
            ]
        }
    },
    "nodes": {
        "Point": {
            "children": [],
            "extras": {
                "light": "Point"
            },
            "matrix": [
                1.0,
                0.0,
                0.0,
                0.0,
                0.0,
                1.0,
                0.0,
                0.0,
                0.0,
                0.0,
                1.0,
                0.0,
                -1.9975566864013672,
                -4.8668742179870605,
                0.4183685779571533,
                1.0
            ],
            "name": "Point"
        },
        "Scene_root": {
            "children": [
                "Point",
                "Sun",
                "Torus.001",
                "Torus"
            ],
            "matrix": [
                -1.0,
                0.0,
                0.0,
                0.0,
                0.0,
                0.0,
                1.0,
                0.0,
                0.0,
                1.0,
                0.0,
                0.0,
                0.0,
                0.0,
                0.0,
                1.0
            ],
            "name": "Scene_root"
        },
        "Sun": {
            "children": [],
            "extras": {
                "light": "Sun"
            },
            "matrix": [
                1.0,
                0.0,
                0.0,
                0.0,
                0.0,
                1.0,
                0.0,
                0.0,
                0.0,
                0.0,
                1.0,
                0.0,
                1.9317584037780762,
                -3.8969943523406982,
                0.7835475206375122,
                1.0
            ],
            "name": "Sun"
        },
        "Torus": {
            "children": [],
            "matrix": [
                -0.24803605675697327,
                -2.1684002149413573e-08,
                -0.43767932057380676,
                0.0,
                -0.43767932057380676,
                -7.624429088082252e-08,
                0.24803605675697327,
                0.0,
                -7.70241328496013e-08,
                0.5030755996704102,
                1.8726201034269252e-08,
                0.0,
                -3.5178942680358887,
                -0.03616058826446533,
                3.018695592880249,
                1.0
            ],
            "meshes": [
                "Torus"
            ],
            "name": "Torus"
        },
        "Torus.001": {
            "children": [],
            "matrix": [
                -0.24221056699752808,
                -0.0534408837556839,
                -0.43767932057380676,
                0.0,
                -0.42739975452423096,
                -0.09430071711540222,
                0.24803605675697327,
                0.0,
                -0.05419537052512169,
                0.24563005566596985,
                9.363100517134626e-09,
                0.0,
                0.2823789715766907,
                -0.5651317834854126,
                0.8348479270935059,
                1.0
            ],
            "meshes": [
                "Torus.001"
            ],
            "name": "Torus.001"
        }
    },
    "samplers": {
        "default": {}
    },
    "scene": "Scene",
    "scenes": {
        "Scene": {
            "extras": {
                "active_camera": "",
                "background_color": [
                    0.05087608844041824,
                    0.05087608844041824,
                    0.05087608844041824
                ],
                "frames_per_second": 24
            },
            "nodes": [
                "Scene_root"
            ]
        }
    }
}
