{
    "accessors": {
        "Lopo-Tree_buffer_accessor_0": {
            "bufferView": "Lopo-Tree_buffer_view_0",
            "byteOffset": 0,
            "byteStride": 24,
            "componentType": 5126,
            "count": 1420,
            "max": [
                1.8325705528259277,
                1.3881949186325073,
                7.380408763885498
            ],
            "min": [
                -2.2685959339141846,
                -1.3882135152816772,
                0
            ],
            "type": "VEC3"
        },
        "Lopo-Tree_buffer_accessor_1": {
            "bufferView": "Lopo-Tree_buffer_view_0",
            "byteOffset": 12,
            "byteStride": 24,
            "componentType": 5126,
            "count": 1420,
            "max": [
                0.9920775294303894,
                0.9983410239219666,
                0.9838976263999939
            ],
            "min": [
                -0.9920774102210999,
                -0.9983799457550049,
                -1.0
            ],
            "type": "VEC3"
        },
        "Lopo-Tree_buffer_accessor_2": {
            "bufferView": "Lopo-Tree_buffer_view_1",
            "byteOffset": 0,
            "byteStride": 2,
            "componentType": 5123,
            "count": 462,
            "max": [
                1419
            ],
            "min": [
                0
            ],
            "type": "SCALAR"
        },
        "Lopo-Tree_buffer_accessor_3": {
            "bufferView": "Lopo-Tree_buffer_view_2",
            "byteOffset": 0,
            "byteStride": 2,
            "componentType": 5123,
            "count": 960,
            "max": [
                1418
            ],
            "min": [
                0
            ],
            "type": "SCALAR"
        }
    },
    "asset": {
        "profile": {
            "api": "WebGL",
            "version": "1.0.3"
        },
        "version": "1.0"
    },
    "bufferViews": {
        "Lopo-Tree_buffer_view_0": {
            "buffer": "Lopo-Tree_buffer",
            "byteLength": 34080,
            "byteOffset": 0,
            "target": 34962
        },
        "Lopo-Tree_buffer_view_1": {
            "buffer": "Lopo-Tree_buffer",
            "byteLength": 924,
            "byteOffset": 34080,
            "target": 34963
        },
        "Lopo-Tree_buffer_view_2": {
            "buffer": "Lopo-Tree_buffer",
            "byteLength": 1920,
            "byteOffset": 35004,
            "target": 34963
        }
    },
    "buffers": {
        "Lopo-Tree_buffer": {
            "byteLength": 36924,
            "type": "arraybuffer",
            "uri": "data:text/plain;base64,"
        }
    },
    "cameras": {
        "Camera": {
            "perspective": {
                "aspectRatio": 1.703595982340029,
                "yfov": 0.5033799409866333,
                "zfar": 100.0,
                "znear": 0.10000000149011612
            },
            "type": "perspective"
        }
    },
    "extensionsUsed": [
        "KHR_materials_common"
    ],
    "extras": {
        "lights": {
            "Lamp": {
                "point": {
                    "color": [
                        1.0,
                        1.0,
                        1.0
                    ],
                    "constantAttenuation": 1,
                    "linearAttenuation": 0,
                    "quadraticAttenuation": 0.03333335240683057
                },
                "type": "point"
            }
        }
    },
    "materials": {
        "Material": {
            "extensions": {
                "KHR_materials_common": {
                    "technique": "PHONG",
                    "values": {
                        "ambient": [
                            1.0,
                            1.0,
                            1.0,
                            1.0
                        ],
                        "diffuse": [
                            0.64000004529953,
                            0.64000004529953,
                            0.64000004529953,
                            1.0
                        ],
                        "doubleSided": false,
                        "emission": [
                            0.0,
                            0.0,
                            0.0,
                            1.0
                        ],
                        "shininess": 50,
                        "specular": [
                            0.5,
                            0.5,
                            0.5,
                            1.0
                        ],
                        "transparency": 1.0,
                        "transparent": false
                    }
                }
            }
        },
        "Material.001": {
            "extensions": {
                "KHR_materials_common": {
                    "technique": "PHONG",
                    "values": {
                        "ambient": [
                            1.0,
                            1.0,
                            1.0,
                            1.0
                        ],
                        "diffuse": [
                            0.47406163811683655,
                            0.1389402598142624,
                            0.0,
                            1.0
                        ],
                        "doubleSided": false,
                        "emission": [
                            0.0,
                            0.0,
                            0.0,
                            1.0
                        ],
                        "shininess": 50,
                        "specular": [
                            0.5,
                            0.5,
                            0.5,
                            1.0
                        ],
                        "transparency": 1.0,
                        "transparent": false
                    }
                }
            }
        },
        "Material.002": {
            "extensions": {
                "KHR_materials_common": {
                    "technique": "PHONG",
                    "values": {
                        "ambient": [
                            1.0,
                            1.0,
                            1.0,
                            1.0
                        ],
                        "diffuse": [
                            0.009840689599514008,
                            0.40565386414527893,
                            0.0,
                            1.0
                        ],
                        "doubleSided": false,
                        "emission": [
                            0.0,
                            0.0,
                            0.0,
                            1.0
                        ],
                        "shininess": 50,
                        "specular": [
                            0.016454456374049187,
                            0.17527729272842407,
                            0.0,
                            1.0
                        ],
                        "transparency": 1.0,
                        "transparent": false
                    }
                }
            }
        },
        "Material.003": {
            "extensions": {
                "KHR_materials_common": {
                    "technique": "PHONG",
                    "values": {
                        "ambient": [
                            1.0,
                            1.0,
                            1.0,
                            1.0
                        ],
                        "diffuse": [
                            0.0,
                            0.64000004529953,
                            0.002104467013850808,
                            1.0
                        ],
                        "doubleSided": false,
                        "emission": [
                            0.0,
                            0.0,
                            0.0,
                            1.0
                        ],
                        "shininess": 50,
                        "specular": [
                            0.05072983354330063,
                            0.5,
                            0.0,
                            1.0
                        ],
                        "transparency": 1.0,
                        "transparent": false
                    }
                }
            }
        },
        "Material.004": {
            "extensions": {
                "KHR_materials_common": {
                    "technique": "PHONG",
                    "values": {
                        "ambient": [
                            1.0,
                            1.0,
                            1.0,
                            1.0
                        ],
                        "diffuse": [
                            0.64000004529953,
                            0.14579300582408905,
                            0.0,
                            1.0
                        ],
                        "doubleSided": false,
                        "emission": [
                            0.0,
                            0.0,
                            0.0,
                            1.0
                        ],
                        "shininess": 50,
                        "specular": [
                            0.5,
                            0.06230049952864647,
                            0.0,
                            1.0
                        ],
                        "transparency": 1.0,
                        "transparent": false
                    }
                }
            }
        }
    },
    "meshes": {
        "Lopo-Tree": {
            "name": "Lopo-Tree",
            "primitives": [
                {
                    "attributes": {
                        "NORMAL": "Lopo-Tree_buffer_accessor_1",
                        "POSITION": "Lopo-Tree_buffer_accessor_0"
                    },
                    "indices": "Lopo-Tree_buffer_accessor_2",
                    "material": "Material.004",
                    "mode": 4
                },
                {
                    "attributes": {
                        "NORMAL": "Lopo-Tree_buffer_accessor_1",
                        "POSITION": "Lopo-Tree_buffer_accessor_0"
                    },
                    "indices": "Lopo-Tree_buffer_accessor_3",
                    "material": "Material.003",
                    "mode": 4
                }
            ]
        }
    },
    "nodes": {
        "Camera": {
            "camera": "Camera",
            "children": [],
            "matrix": [
                0.6859206557273865,
                0.7276763319969177,
                0.0,
                0.0,
                -0.32401347160339355,
                0.305420845746994,
                0.8953956365585327,
                0.0,
                0.6515582203865051,
                -0.6141703724861145,
                0.44527140259742737,
                0.0,
                7.481131553649902,
                -6.5076398849487305,
                5.34366512298584,
                1.0
            ],
            "name": "Camera"
        },
        "Lamp": {
            "children": [],
            "extras": {
                "light": "Lamp"
            },
            "matrix": [
                -0.29086464643478394,
                0.9551711678504944,
                -0.05518905818462372,
                0.0,
                -0.7711008191108704,
                -0.1998833566904068,
                0.6045247316360474,
                0.0,
                0.5663931965827942,
                0.21839119493961334,
                0.7946722507476807,
                0.0,
                4.076245307922363,
                1.0054539442062378,
                5.903861999511719,
                1.0
            ],
            "name": "Lamp"
        },
        "Lopo-Tree": {
            "children": [],
            "matrix": [
                1.0,
                0.0,
                0.0,
                0.0,
                0.0,
                1.0,
                0.0,
                0.0,
                0.0,
                0.0,
                1.0,
                0.0,
                0.0,
                0.0,
                0.0,
                1.0
            ],
            "meshes": [
                "Lopo-Tree"
            ],
            "name": "Lopo-Tree"
        },
        "Scene_root": {
            "children": [
                "Lopo-Tree",
                "Lamp",
                "Camera"
            ],
            "matrix": [
                -1.0,
                0.0,
                0.0,
                0.0,
                0.0,
                0.0,
                1.0,
                0.0,
                0.0,
                1.0,
                0.0,
                0.0,
                0.0,
                0.0,
                0.0,
                1.0
            ],
            "name": "Scene_root"
        }
    },
    "samplers": {
        "default": {}
    },
    "scene": "Scene",
    "scenes": {
        "Scene": {
            "extras": {
                "active_camera": "Camera",
                "background_color": [
                    0.05087608844041824,
                    0.05087608844041824,
                    0.05087608844041824
                ],
                "frames_per_second": 24
            },
            "nodes": [
                "Scene_root"
            ]
        }
    }
}
