{
    "accessors": {
        "Sphere.012_buffer_accessor_0": {
            "bufferView": "Sphere.012_buffer_view_0",
            "byteOffset": 0,
            "byteStride": 24,
            "componentType": 5126,
            "count": 15552,
            "max": [
                1.6916923522949219,
                0.41713568568229675,
                6.9572553634643555
            ],
            "min": [
                -1.7339801788330078,
                -0.41713547706604004,
                -6.808687210083008
            ],
            "type": "VEC3"
        },
        "Sphere.012_buffer_accessor_1": {
            "bufferView": "Sphere.012_buffer_view_0",
            "byteOffset": 12,
            "byteStride": 24,
            "componentType": 5126,
            "count": 15552,
            "max": [
                0.9999999403953552,
                0.9999999403953552,
                1.0
            ],
            "min": [
                -0.9999998807907104,
                -0.9999998807907104,
                -1.0
            ],
            "type": "VEC3"
        },
        "Sphere.012_buffer_accessor_2": {
            "bufferView": "Sphere.012_buffer_view_1",
            "byteOffset": 0,
            "byteStride": 2,
            "componentType": 5123,
            "count": 23316,
            "max": [
                15551
            ],
            "min": [
                0
            ],
            "type": "SCALAR"
        }
    },
    "asset": {
        "profile": {
            "api": "WebGL",
            "version": "1.0.3"
        },
        "version": "1.0"
    },
    "bufferViews": {
        "Sphere.012_buffer_view_0": {
            "buffer": "Sphere.012_buffer",
            "byteLength": 373248,
            "byteOffset": 0,
            "target": 34962
        },
        "Sphere.012_buffer_view_1": {
            "buffer": "Sphere.012_buffer",
            "byteLength": 46632,
            "byteOffset": 373248,
            "target": 34963
        }
    },
    "buffers": {
        "Sphere.012_buffer": {
            "byteLength": 419880,
            "type": "arraybuffer",
            "uri": "data:text/plain;base64,"
        }
    },
    "cameras": {
        "Camera": {
            "perspective": {
                "aspectRatio": 1.703595982340029,
                "yfov": 0.5033799409866333,
                "zfar": 100.0,
                "znear": 0.10000000149011612
            },
            "type": "perspective"
        }
    },
    "extensionsUsed": [
        "KHR_materials_common"
    ],
    "extras": {
        "lights": {
            "Lamp": {
                "point": {
                    "color": [
                        1.0,
                        1.0,
                        1.0
                    ],
                    "constantAttenuation": 1,
                    "linearAttenuation": 0,
                    "quadraticAttenuation": 0.03333335240683057
                },
                "type": "point"
            }
        }
    },
    "materials": {
        "Material": {
            "extensions": {
                "KHR_materials_common": {
                    "technique": "PHONG",
                    "values": {
                        "ambient": [
                            1.0,
                            1.0,
                            1.0,
                            1.0
                        ],
                        "diffuse": [
                            0.64000004529953,
                            0.64000004529953,
                            0.64000004529953,
                            1.0
                        ],
                        "doubleSided": false,
                        "emission": [
                            0.0,
                            0.0,
                            0.0,
                            1.0
                        ],
                        "shininess": 50,
                        "specular": [
                            0.5,
                            0.5,
                            0.5,
                            1.0
                        ],
                        "transparency": 1.0,
                        "transparent": false
                    }
                }
            }
        },
        "Material.001": {
            "extensions": {
                "KHR_materials_common": {
                    "technique": "PHONG",
                    "values": {
                        "ambient": [
                            1.0,
                            1.0,
                            1.0,
                            1.0
                        ],
                        "diffuse": [
                            0.64000004529953,
                            0.2863326966762543,
                            0.0,
                            1.0
                        ],
                        "doubleSided": false,
                        "emission": [
                            0.0,
                            0.0,
                            0.0,
                            1.0
                        ],
                        "shininess": 50,
                        "specular": [
                            0.5,
                            0.5,
                            0.5,
                            1.0
                        ],
                        "transparency": 1.0,
                        "transparent": false
                    }
                }
            }
        }
    },
    "meshes": {
        "Sphere.012": {
            "name": "Sphere.012",
            "primitives": [
                {
                    "attributes": {
                        "NORMAL": "Sphere.012_buffer_accessor_1",
                        "POSITION": "Sphere.012_buffer_accessor_0"
                    },
                    "indices": "Sphere.012_buffer_accessor_2",
                    "material": "Material.001",
                    "mode": 4
                }
            ]
        }
    },
    "nodes": {
        "Camera": {
            "camera": "Camera",
            "children": [],
            "matrix": [
                0.6859206557273865,
                0.7276763319969177,
                0.0,
                0.0,
                -0.32401347160339355,
                0.305420845746994,
                0.8953956365585327,
                0.0,
                0.6515582203865051,
                -0.6141703724861145,
                0.44527140259742737,
                0.0,
                7.481131553649902,
                -6.5076398849487305,
                7.378839015960693,
                1.0
            ],
            "name": "Camera"
        },
        "Lamp": {
            "children": [],
            "extras": {
                "light": "Lamp"
            },
            "matrix": [
                -0.29086464643478394,
                0.9551711678504944,
                -0.05518905818462372,
                0.0,
                -0.7711008191108704,
                -0.1998833566904068,
                0.6045247316360474,
                0.0,
                0.5663931965827942,
                0.21839119493961334,
                0.7946722507476807,
                0.0,
                4.076245307922363,
                1.0054539442062378,
                7.939035892486572,
                1.0
            ],
            "name": "Lamp"
        },
        "Scene_root": {
            "children": [
                "Sphere.012",
                "Lamp",
                "Camera"
            ],
            "matrix": [
                -1.0,
                0.0,
                0.0,
                0.0,
                0.0,
                0.0,
                1.0,
                0.0,
                0.0,
                1.0,
                0.0,
                0.0,
                0.0,
                0.0,
                0.0,
                1.0
            ],
            "name": "Scene_root"
        },
        "Sphere.012": {
            "children": [],
            "matrix": [
                -0.5,
                -1.6292068494294654e-07,
                0.0,
                0.0,
                1.6292068494294654e-07,
                -0.5,
                0.0,
                0.0,
                0.0,
                0.0,
                0.5,
                0.0,
                -0.04228778928518295,
                0.0,
                3.159662961959839,
                1.0
            ],
            "meshes": [
                "Sphere.012"
            ],
            "name": "Sphere.012"
        }
    },
    "samplers": {
        "default": {}
    },
    "scene": "Scene",
    "scenes": {
        "Scene": {
            "extras": {
                "active_camera": "Camera",
                "background_color": [
                    0.05087608844041824,
                    0.05087608844041824,
                    0.05087608844041824
                ],
                "frames_per_second": 24
            },
            "nodes": [
                "Scene_root"
            ]
        }
    }
}
